<?xml version="1.0" standalone="no"?>
<!DOCTYPE svg PUBLIC "-//W3C//DTD SVG 20010904//EN"
 "http://www.w3.org/TR/2001/REC-SVG-20010904/DTD/svg10.dtd">
<svg version="1.0" xmlns="http://www.w3.org/2000/svg"
 width="512.000000pt" height="512.000000pt" viewBox="0 0 512.000000 512.000000"
 preserveAspectRatio="xMidYMid meet">
<metadata>
Created by potrace 1.14, written by Peter Selinger 2001-2017
</metadata>
<g transform="translate(0.000000,512.000000) scale(0.100000,-0.100000)"
fill="#000000" stroke="none">
<path d="M1517 4879 c-9 -6 -17 -8 -17 -5 0 10 -84 -27 -130 -57 -134 -89
-221 -246 -264 -477 -15 -76 -15 -456 -2 -545 4 -22 16 -92 26 -156 11 -64 20
-121 20 -127 0 -6 -43 -20 -97 -32 -504 -115 -877 -328 -998 -569 -42 -82 -55
-144 -51 -240 6 -146 68 -268 205 -402 81 -79 232 -186 335 -237 70 -35 117
-30 153 14 28 35 32 52 21 89 -12 45 -24 55 -133 119 -243 144 -369 293 -369
441 0 208 277 408 748 541 50 14 102 28 116 31 14 2 43 8 65 13 61 14 62 14
75 -42 15 -65 141 -446 169 -511 l21 -48 -103 -207 c-56 -114 -113 -234 -126
-267 -13 -33 -30 -73 -37 -90 -85 -193 -191 -539 -229 -747 -24 -131 -26 -151
-29 -323 -4 -197 14 -299 74 -423 152 -307 487 -353 918 -126 131 70 276 169
290 199 35 75 -15 155 -96 155 -17 0 -66 -25 -127 -65 -216 -142 -447 -232
-556 -219 -82 11 -107 17 -138 35 -72 41 -132 152 -149 274 -9 69 -8 245 2
330 32 290 163 696 347 1082 l63 133 107 -218 c141 -286 290 -545 451 -785 66
-99 282 -387 319 -428 13 -14 49 -54 79 -89 142 -165 376 -376 535 -482 226
-150 459 -216 627 -179 225 51 383 278 415 598 16 154 4 479 -21 588 -3 11 -8
43 -11 70 -12 93 -80 375 -127 525 -51 166 -149 435 -193 536 -8 16 -30 66
-48 110 -85 196 -127 271 -161 289 -64 35 -141 -4 -152 -76 -4 -27 4 -55 39
-129 118 -252 222 -513 290 -725 30 -95 92 -316 102 -364 2 -9 13 -63 24 -121
12 -58 24 -121 27 -140 2 -19 6 -48 9 -65 32 -215 24 -490 -17 -623 -70 -228
-190 -305 -394 -252 -327 84 -779 507 -1183 1108 -123 182 -270 433 -375 642
-96 189 -206 431 -206 451 0 27 223 378 379 598 l96 134 280 -6 c154 -4 305
-9 335 -11 105 -9 185 -17 215 -21 17 -3 50 -7 75 -9 52 -6 136 -16 165 -21
11 -2 52 -8 90 -14 39 -6 81 -13 95 -16 14 -3 72 -14 130 -26 473 -94 940
-276 1171 -455 67 -52 169 -167 195 -219 71 -147 -5 -300 -219 -440 -75 -49
-245 -135 -267 -135 -4 0 -20 -14 -35 -32 -23 -27 -26 -39 -22 -75 8 -77 71
-115 146 -88 150 53 353 178 458 282 117 117 173 230 179 363 5 144 -57 273
-205 420 -151 150 -349 269 -636 383 -170 67 -445 152 -565 173 -14 3 -50 11
-80 19 -54 14 -210 44 -260 50 -14 2 -39 6 -56 9 -18 3 -52 8 -75 11 -24 3
-55 7 -69 10 -22 4 -56 8 -165 20 -31 4 -137 14 -215 20 -69 6 -327 18 -407
19 -40 0 -73 5 -73 9 0 18 158 193 320 356 435 435 851 672 1093 621 101 -21
179 -115 213 -256 22 -94 20 -306 -4 -442 -20 -116 -15 -152 29 -184 30 -23
80 -26 114 -8 42 22 56 66 82 260 9 66 10 299 1 355 -39 254 -186 441 -382
485 -54 12 -162 15 -226 6 -228 -31 -541 -206 -857 -482 -161 -140 -450 -445
-593 -624 -83 -104 -72 -99 -200 -106 -63 -4 -128 -8 -145 -9 -42 -2 -176 -17
-200 -21 -22 -4 -127 -15 -165 -18 -24 -1 -26 4 -42 84 -9 47 -19 110 -23 140
-4 30 -10 87 -15 125 -9 74 -6 349 4 400 40 200 103 313 203 361 48 22 142 26
213 8 81 -21 242 -103 350 -179 106 -75 152 -89 196 -61 39 26 58 79 43 123
-26 79 -334 266 -524 318 -89 25 -245 32 -278 14z m316 -1527 c-10 -15 -43
-63 -73 -107 -31 -44 -91 -135 -134 -203 -43 -67 -80 -121 -81 -120 -5 6 -84
248 -105 323 -20 70 -20 89 -2 91 7 0 99 12 157 19 17 2 66 7 110 11 44 4 81
7 82 8 1 0 15 2 32 3 l31 2 -17 -27z"/>
<path d="M2495 2856 c-133 -38 -219 -157 -218 -302 3 -262 325 -392 511 -206
61 61 86 123 86 217 1 91 -21 147 -77 207 -43 46 -74 65 -133 83 -57 17 -113
18 -169 1z"/>
</g>
</svg>
